<svg width="522" height="450" viewBox="0 0 522 450" fill="none" xmlns="http://www.w3.org/2000/svg">
<path d="M336.943 153.563C344.898 132.403 327.558 106.306 298.214 95.2722C268.871 84.2388 238.635 92.4478 230.68 113.608C222.726 134.767 240.066 160.865 269.409 171.899C298.753 182.932 328.989 174.723 336.943 153.563Z" fill="#A85CA4"/>
<path d="M396.016 281.275C412.449 266.934 410.271 237.544 391.152 215.63C372.033 193.717 343.213 187.579 326.78 201.92C310.347 216.261 312.524 245.651 331.643 267.564C350.762 289.477 379.583 295.616 396.016 281.275Z" fill="#A85CA4"/>
<path d="M427.642 170.956C434.775 159.607 425.591 140.997 407.127 129.389C388.664 117.781 367.914 117.571 360.781 128.92C353.647 140.268 362.832 158.878 381.296 170.486C399.759 182.094 420.509 182.305 427.642 170.956Z" fill="#A85CA4"/>
<path d="M353.767 89.2631C358.63 79.629 350.489 65.7176 335.583 58.1912C320.678 50.6648 304.652 52.3734 299.788 62.0075C294.925 71.6417 303.066 85.553 317.971 93.0794C332.877 100.606 348.903 98.8972 353.767 89.2631Z" fill="#A85CA4"/>
<path d="M260.621 66.1617C262.801 55.0129 249.657 43.059 231.264 39.462C212.87 35.865 196.193 41.9869 194.013 53.1358C191.833 64.2846 204.977 76.2385 223.37 79.8355C241.763 83.4325 258.441 77.3105 260.621 66.1617Z" fill="#84298C"/>
<path d="M157.4 142.488C183.411 142.488 204.498 129.135 204.498 112.663C204.498 96.1907 183.411 82.8374 157.4 82.8374C131.388 82.8374 110.302 96.1907 110.302 112.663C110.302 129.135 131.388 142.488 157.4 142.488Z" fill="#A85CA4"/>
<path d="M265.882 239.785C274.995 215.541 261.095 187.884 234.835 178.009C208.574 168.135 179.898 179.784 170.784 204.027C161.671 228.271 175.571 255.928 201.832 265.803C228.092 275.677 256.768 264.028 265.882 239.785Z" fill="#84298C"/>
<path d="M161.127 366.212C168.882 345.584 157.931 322.38 136.667 314.385C115.404 306.39 91.8798 316.631 84.1254 337.259C76.3709 357.887 87.3222 381.091 108.586 389.086C129.849 397.081 153.373 386.84 161.127 366.212Z" fill="#A85CA4"/>
<path d="M306.921 449.794C327.026 449.794 343.324 431.928 343.324 409.89C343.324 387.851 327.026 369.985 306.921 369.985C286.816 369.985 270.518 387.851 270.518 409.89C270.518 431.928 286.816 449.794 306.921 449.794Z" fill="#84298C"/>
<path d="M472.008 403.702C487.596 396.019 492.338 373.766 482.598 353.997C472.858 334.229 452.325 324.431 436.736 332.113C421.148 339.796 416.406 362.049 426.146 381.818C435.886 401.586 456.419 411.384 472.008 403.702Z" fill="#A85CA4"/>
<path d="M509.942 266.846C516.396 259.512 512.227 245.292 500.631 235.084C489.034 224.876 474.401 222.547 467.947 229.881C461.493 237.215 465.662 251.436 477.258 261.643C488.855 271.851 503.488 274.18 509.942 266.846Z" fill="#A85CA4"/>
<path d="M56.9658 112.435C74.3641 109.737 87.1139 98.8138 85.4434 88.0368C83.7728 77.2597 68.3145 70.71 50.9162 73.4076C33.5179 76.1052 20.7681 87.0285 22.4386 97.8055C24.1092 108.583 39.5675 115.132 56.9658 112.435Z" fill="#84298C"/>
<path d="M46.7206 228.142C66.7103 223.846 80.6324 209.739 77.8164 196.633C75.0003 183.527 56.5126 176.385 36.5228 180.681C16.533 184.977 2.61097 199.084 5.42701 212.191C8.24304 225.297 26.7308 232.438 46.7206 228.142Z" fill="#A85CA4"/>
<path d="M493.885 172.782C497.935 166.339 490.538 154.401 477.364 146.118C464.19 137.835 450.226 136.344 446.176 142.788C442.126 149.231 449.522 161.17 462.697 169.452C475.871 177.735 489.834 179.226 493.885 172.782Z" fill="#84298C"/>
<path d="M433.45 102.21C437.016 96.5358 431.878 86.8877 421.973 80.6605C412.069 74.4332 401.148 73.985 397.581 79.6593C394.015 85.3336 399.153 94.9818 409.058 101.209C418.962 107.436 429.883 107.884 433.45 102.21Z" fill="#A85CA4"/>
<path d="M367.493 50.8958C369.91 45.6305 363.334 37.4423 352.805 32.6069C342.276 27.7715 331.78 28.12 329.363 33.3853C326.946 38.6506 333.521 46.8388 344.051 51.6742C354.58 56.5096 365.075 56.1611 367.493 50.8958Z" fill="#84298C"/>
<path d="M196.571 24.1965C208.926 23.3964 218.62 17.7852 218.224 11.6637C217.827 5.54207 207.49 1.22817 195.135 2.0283C182.78 2.82842 173.086 8.43958 173.482 14.5612C173.879 20.6828 184.216 24.9966 196.571 24.1965Z" fill="#A85CA4"/>
<path d="M294.35 17.8161C295.461 12.1302 288.772 6.03641 279.408 4.2052C270.044 2.374 261.552 5.49886 260.44 11.1848C259.328 16.8707 266.018 22.9645 275.382 24.7957C284.746 26.6269 293.238 23.5021 294.35 17.8161Z" fill="#A85CA4"/>
<path d="M120.959 46.3793C132.264 45.2758 140.892 38.8816 140.23 32.0975C139.568 25.3135 129.867 20.7086 118.561 21.8121C107.256 22.9157 98.628 29.3099 99.2901 36.0939C99.9521 42.8779 109.654 47.4829 120.959 46.3793Z" fill="#A85CA4"/>
</svg>
